<svg xmlns="http://www.w3.org/2000/svg" viewBox="0 0 320 200"><rect width="320" height="200" fill="#dff3ff"/><rect y="140" width="320" height="60" fill="#9fe17a"/><circle cx="270" cy="40" r="18" fill="#ffd166"/><rect x="40" y="95" width="70" height="10" fill="#8b5e3c"/><rect x="50" y="80" width="8" height="35" fill="#8b5e3c"/><rect x="92" y="80" width="8" height="35" fill="#8b5e3c"/><circle cx="75" cy="65" r="16" fill="#ffd6a5"/><path d="M62 82 q13 -12 26 0 v28 h-26z" fill="#5b6ee1"/><line x1="75" y1="94" x2="75" y2="120" stroke="#333" stroke-width="3"/><line x1="75" y1="104" x2="62" y2="114" stroke="#333" stroke-width="3"/><line x1="75" y1="104" x2="88" y2="114" stroke="#333" stroke-width="3"/><circle cx="195" cy="75" r="14" fill="#ffd6a5"/><path d="M180 90 q15 -10 30 0 v30 h-30z" fill="#ff8fab"/><line x1="195" y1="104" x2="195" y2="132" stroke="#333" stroke-width="3"/><line x1="195" y1="111" x2="178" y2="122" stroke="#333" stroke-width="3"/><line x1="195" y1="111" x2="214" y2="106" stroke="#333" stroke-width="3"/><path d="M214 106 q18 -12 28 2" stroke="#ff6b6b" stroke-width="3" fill="none"/><path d="M245 106 q0 20 -20 26" stroke="#ff6b6b" stroke-width="3" fill="none"/><circle cx="247" cy="109" r="3" fill="#ff6b6b"/><ellipse cx="250" cy="150" rx="18" ry="10" fill="#c49a6c"/><circle cx="262" cy="146" r="7" fill="#c49a6c"/><circle cx="268" cy="140" r="2" fill="#333"/><text x="10" y="20" font-size="18" fill="#333">Parque</text></svg>