<svg xmlns="http://www.w3.org/2000/svg" viewBox="0 0 320 120"><rect width="320" height="120" fill="#f8fbff"/><rect x="10" y="15" width="90" height="90" rx="10" fill="#fff" stroke="#5b6ee1"/><rect x="115" y="15" width="90" height="90" rx="10" fill="#fff" stroke="#5b6ee1"/><rect x="220" y="15" width="90" height="90" rx="10" fill="#fff" stroke="#5b6ee1"/><circle cx="55" cy="45" r="12" fill="#ffd6a5"/><path d="M40 58 q15 -10 30 0 v22 h-30z" fill="#5b6ee1"/><path d="M45 85 q10 -10 20 0" stroke="#333" stroke-width="3" fill="none"/><circle cx="160" cy="45" r="12" fill="#ffd6a5"/><path d="M145 58 q15 -10 30 0 v22 h-30z" fill="#5b6ee1"/><path d="M140 78 l10 12 l20 -20" stroke="#4caf7a" stroke-width="4" fill="none"/><circle cx="265" cy="45" r="12" fill="#ffd6a5"/><path d="M250 58 q15 -10 30 0 v22 h-30z" fill="#5b6ee1"/><rect x="245" y="82" width="40" height="6" fill="#8b5e3c"/><text x="25" y="101" font-size="12">1</text><text x="130" y="101" font-size="12">2</text><text x="235" y="101" font-size="12">3</text></svg>