<svg xmlns="http://www.w3.org/2000/svg" viewBox="0 0 320 210"><rect width="320" height="210" rx="20" fill="#dff3ff"/><rect y="155" width="320" height="55" fill="#4dabf7"/><circle cx="60" cy="44" r="22" fill="#ffd166"/><ellipse cx="205" cy="55" rx="45" ry="22" fill="#fff"/><ellipse cx="245" cy="55" rx="38" ry="20" fill="#fff"/><ellipse cx="225" cy="42" rx="35" ry="18" fill="#fff"/><path d="M95 155 C115 125 115 90 95 70" stroke="#ff922b" stroke-width="5" fill="none" marker-end="url(#a)"/><path d="M175 85 C150 105 145 125 150 150" stroke="#5b6ee1" stroke-width="5" fill="none" marker-end="url(#a)"/><path d="M235 80 l-15 42 M255 80 l-15 42 M215 80 l-15 42" stroke="#4dabf7" stroke-width="5" stroke-linecap="round"/><defs><marker id="a" markerWidth="10" markerHeight="10" refX="5" refY="5" orient="auto-start-reverse"><path d="M0,0 L10,5 L0,10 z" fill="#555"/></marker></defs><text x="78" y="94" font-size="14">evaporación</text><text x="185" y="30" font-size="14">condensación</text><text x="205" y="140" font-size="14">precipitación</text></svg>